<svg width="57" height="62" viewBox="0 0 57 62" fill="none" xmlns="http://www.w3.org/2000/svg">
<g clip-path="url(#clip0_212_632)">
<path d="M56.8312 40.5273C56.796 39.8057 56.7377 39.0848 56.6821 38.3645C56.6486 37.932 56.6002 37.5005 56.5523 37.0025C56.451 37.1117 56.391 37.1684 56.3403 37.2331C55.812 37.9052 55.2917 38.5842 54.7564 39.2504C54.1297 40.0307 53.4007 40.7009 52.5999 41.2842C52.3076 41.497 51.9918 41.6857 51.6657 41.8376C50.4895 42.3851 49.2426 42.5956 47.9601 42.5807C46.7893 42.5669 45.6387 42.3639 44.4971 42.1164C43.8441 41.9749 43.1955 41.8113 42.5941 41.488C41.5063 40.9031 40.9471 39.8171 41.0797 38.554C41.1619 37.7724 41.3966 37.038 41.6766 36.3156C42.1338 35.1349 42.5951 33.9572 42.9812 32.7479C43.467 31.2264 43.7341 29.6675 43.7694 28.0721C43.7895 27.1554 43.7277 26.2339 43.5698 25.3296C43.2705 23.6176 42.746 21.9806 41.9679 20.431C40.886 18.2766 39.4636 16.3865 37.802 14.6795C37.4864 14.3554 37.1567 14.0455 36.8394 13.7233C36.7711 13.6538 36.7284 13.5584 36.6704 13.4699C36.9089 13.1434 37.252 12.9913 37.5058 12.7334C37.7739 12.461 38.0505 12.196 38.3048 11.91C38.5477 11.6376 38.7787 11.3516 38.993 11.0545C39.2068 10.7577 39.4013 10.445 39.5899 10.1301C39.7879 9.79963 39.9878 9.46782 40.1514 9.11905C40.3047 8.79175 40.5501 8.50685 40.6225 8.12071C40.5396 8.06559 40.4726 8.01073 40.3976 7.9731C39.9049 7.72557 39.4114 7.47936 38.9155 7.23819C38.6677 7.1176 38.4199 6.99437 38.1634 6.89684C37.4066 6.60876 36.6307 6.39065 35.832 6.26212C35.7552 6.24966 35.6833 6.20407 35.5813 6.16273C35.9396 5.56219 36.292 5.00432 36.6114 4.42684C36.9326 3.84671 37.2206 3.24696 37.5325 2.63768C37.4429 2.57407 37.3801 2.51524 37.3066 2.47919C35.8193 1.75277 34.3223 1.05126 32.7242 0.612644C31.5115 0.279512 30.2839 0.0404619 29.0263 0.00680417C28.4609 -0.00830208 27.8945 0.00574408 27.3289 0.0182001C25.9294 0.0489426 24.625 0.451776 23.3992 1.12838C22.1682 1.80789 21.0647 2.67345 20.039 3.64608C19.0277 4.60467 18.1148 5.66052 17.2133 6.72511C16.8205 7.18916 16.4954 7.71444 16.1412 8.21294C15.2915 9.41004 14.4383 10.6045 13.5953 11.8064C12.8923 12.8082 12.1834 13.8065 11.514 14.8319C11.2404 15.2511 10.902 15.5344 10.4584 15.7104C10.3306 15.761 10.2031 15.8135 10.0738 15.8599C9.26373 16.1495 8.449 16.4225 7.60953 16.6104C7.3249 16.674 7.04387 16.7562 6.76568 16.8447C6.56065 16.9099 6.50192 16.9905 6.51428 17.1879C6.54854 17.7338 6.58048 18.2803 6.63715 18.8239C6.70927 19.5151 6.94754 20.1599 7.18683 20.8047C7.51474 21.689 7.98277 22.4833 8.57959 23.2005C9.72429 24.5767 11.1552 25.3299 12.9346 25.3312C13.2089 25.3315 13.4835 25.3397 13.7573 25.3564C13.8696 25.3633 13.9804 25.402 14.2168 25.4531C14.0095 25.6214 13.9118 25.716 13.8006 25.7881C13.2638 26.1361 12.7213 26.4751 12.1842 26.8228C11.0797 27.5378 10.0324 28.3368 9.02057 29.182C8.28878 29.7934 7.58841 30.4454 6.88907 31.0965C5.29282 32.583 3.8859 34.2418 2.67654 36.0763C1.9808 37.1319 1.40073 38.251 0.93115 39.4315C0.306767 41.0014 -0.0587449 42.621 0.00822688 44.3301C0.0401673 45.1448 0.144746 45.9454 0.364981 46.7294C0.676657 47.8374 1.12537 48.8864 1.67428 49.8884C2.63146 51.6357 3.95699 53.0615 5.43423 54.3411C6.57842 55.332 7.82538 56.1763 9.14112 56.9102C10.0612 57.4233 10.9893 57.9215 11.957 58.3326C12.7329 58.662 13.5146 58.9805 14.3085 59.2593C15.2809 59.6009 16.2597 59.9296 17.2517 60.2025C18.3935 60.5169 19.5478 60.7882 20.7059 61.0331C21.6958 61.2428 22.6957 61.4079 23.6962 61.5563C24.4586 61.6694 25.2293 61.7232 25.9959 61.808C26.9165 61.9098 27.8384 61.9808 28.7649 61.9938C30.4631 62.0177 32.1578 61.9782 33.8501 61.8072C34.8228 61.7092 35.7938 61.5997 36.7557 61.4301C38.1072 61.1921 39.4477 60.8953 40.7724 60.523C42.2814 60.0987 43.7455 59.5474 45.1689 58.8888C46.3414 58.3461 47.4712 57.7177 48.5525 56.9931C49.792 56.1625 50.9828 55.2747 52.044 54.2093C53.2052 53.0438 54.2096 51.756 54.9733 50.2777C55.3118 49.6223 55.5915 48.9399 55.8383 48.2421C56.3818 46.7055 56.6994 45.1231 56.7759 43.4897C56.7833 43.331 56.7849 43.1712 56.8024 43.0138C56.8951 42.1858 56.8719 41.3558 56.8312 40.5273ZM37.7087 8.94387C37.4687 9.89715 36.0123 11.4009 34.5904 12.1316C34.3833 12.2381 34.177 12.3282 33.975 12.3979C33.6814 12.1387 33.3787 11.8567 33.0606 11.5949C32.7265 11.3198 32.3845 11.0534 32.0329 10.8027C31.6954 10.5618 31.3335 10.357 30.9963 10.1158C30.6641 9.87781 30.2542 9.75802 29.949 9.4058C30.4577 8.95818 31.5151 8.56781 32.6985 8.36003C32.7945 8.3428 32.8914 8.32716 32.989 8.31285C33.3669 8.25693 33.7538 8.2201 34.1366 8.20605C35.2764 8.16444 37.157 8.4716 37.7087 8.94387ZM55.1003 42.206C55.0269 42.8542 54.9643 43.5056 54.8479 44.1459C54.5751 45.6446 54.1516 47.0924 53.468 48.4573C52.7233 49.9446 51.8078 51.2973 50.6734 52.4968C50.1333 53.0679 49.5519 53.5865 48.952 54.0877C46.9988 55.7192 44.7977 56.8794 42.4416 57.7514C41.0679 58.2594 39.6689 58.6776 38.2455 59.006C37.5604 59.1639 36.8685 59.297 36.1751 59.4112C34.4127 59.7011 32.6377 59.8681 30.8536 59.915C29.465 59.9513 28.0779 59.9473 26.6898 59.8204C25.5116 59.7128 24.3352 59.5991 23.164 59.4334C21.8555 59.2482 20.5619 58.9789 19.2752 58.672C17.5355 58.257 15.8249 57.7402 14.148 57.1105C13.0358 56.6931 11.9614 56.1822 10.9038 55.6328C10.1372 55.2344 9.38892 54.8038 8.66434 54.3323C6.836 53.1424 5.21838 51.7112 3.94849 49.8913C3.75118 49.6088 3.56572 49.3205 3.39365 49.0258C3.34626 48.9447 3.29989 48.8631 3.25456 48.7812C2.93696 48.2077 2.6701 47.61 2.46403 46.9843C2.35044 46.6398 2.25565 46.2865 2.18069 45.924C1.93521 44.7343 1.94989 43.5451 2.18352 42.3501C2.53538 40.5525 3.30968 38.9512 4.2697 37.4295C5.00046 36.2711 5.84508 35.2014 6.75976 34.1975C7.63915 33.2323 8.55976 32.3055 9.55996 31.4678C9.93191 31.1561 10.2814 30.8167 10.6421 30.4909C10.7193 30.4212 10.7961 30.3497 10.8801 30.2893C12.6231 29.0349 14.3943 27.824 16.2816 26.8095C17.315 26.254 18.3711 25.7455 19.4836 25.3699C19.8448 25.248 20.168 25.2541 20.5274 25.4038C21.9183 25.9834 23.2243 26.7202 24.4437 27.6139C25.2123 28.1773 25.9299 28.8096 26.5659 29.5332C26.7253 29.7144 26.874 29.906 27.028 30.0931C27.1339 30.0338 27.0551 29.9736 27.0332 29.9264C26.596 28.9838 26.0598 28.1015 25.4851 27.2423C24.7917 26.2053 24.0199 25.2393 23.0826 24.4243C22.6233 24.0249 22.1416 23.664 21.5804 23.4175C21.0008 23.1631 20.4058 23.0388 19.7788 23.0618C18.9904 23.0907 18.2019 23.1127 17.4139 23.1493C16.4377 23.1946 15.462 23.2516 14.4857 23.3038C13.7143 23.3449 12.9449 23.3481 12.1747 23.249C11.3316 23.1406 10.6495 22.7526 10.1071 22.0866C9.48165 21.3185 9.02676 20.4554 8.73929 19.4986C8.6937 19.3468 8.65171 19.1931 8.62338 19.0372C8.54224 18.5883 8.59659 18.5003 9.03629 18.3585C9.59215 18.1791 10.1524 18.0132 10.7049 17.8237C11.0946 17.6901 11.4782 17.5351 11.8584 17.375C12.1816 17.2388 12.4518 17.0127 12.6695 16.7379C13.0698 16.2317 13.4788 15.7287 13.8317 15.1883C14.5102 14.1486 15.2046 13.1196 15.8084 12.0287C16.1907 11.3378 16.6785 10.7203 17.1623 10.1002C18.0108 9.01198 18.8641 7.92857 19.7984 6.91698C20.2809 6.39436 20.7698 5.87757 21.2818 5.38622H21.2821C21.5474 5.13074 21.8191 4.88268 22.0994 4.64389C22.0994 4.64389 22.0997 4.64389 22.0999 4.64363C22.8804 3.97842 23.7163 3.40014 24.625 2.92708C24.9387 2.76383 25.2571 2.61753 25.5824 2.49774C26.0343 2.35331 26.4861 2.24756 26.933 2.17389C26.9335 2.17389 26.9337 2.17362 26.934 2.17362C27.0399 2.15613 27.1455 2.1405 27.2508 2.12671C27.8876 2.0427 28.5125 2.0215 29.1126 2.04456C29.4168 2.08458 29.7211 2.12539 30.026 2.15534C30.9688 2.24756 31.8917 2.44315 32.7945 2.72964C33.1992 2.85791 33.5961 3.01136 33.9931 3.1648C34.3547 3.31825 34.5662 3.42824 34.5884 3.4399C34.5896 3.44069 34.5904 3.44096 34.5904 3.44096C34.4137 3.86102 34.2118 4.24689 33.9897 4.60149C33.0946 6.03234 31.8721 6.95303 30.6556 7.54562C29.4596 8.12813 28.269 8.39342 27.3997 8.51374C26.8284 8.59298 26.3956 8.60941 26.1919 8.61233L26.2213 8.70641C26.2885 8.74617 26.3761 8.79811 26.4806 8.86065C26.6759 8.977 26.9314 9.12965 27.2287 9.30854C28.733 10.2136 31.3116 11.7894 32.6194 12.7313C32.81 12.8686 32.9738 12.9926 33.1031 13.0989C33.5554 13.449 33.999 13.8115 34.4333 14.1876C35.2998 14.9381 36.1467 15.7128 36.9112 16.5738C37.9421 17.7349 38.8995 18.954 39.672 20.3215C40.0958 21.0718 40.4834 21.8351 40.7987 22.6402C41.1537 23.5458 41.3806 24.4861 41.5557 25.442C41.9419 27.5492 41.7783 29.6222 41.2211 31.6793C41.2057 31.7365 41.1897 31.7938 41.1735 31.851C41.164 31.8844 41.1544 31.9181 41.1446 31.9515C41.1387 31.9714 41.133 31.9912 41.1271 32.0108C41.1163 32.0474 41.1055 32.084 41.0942 32.1206C41.0839 32.1545 41.0735 32.1884 41.0627 32.2223C41.0614 32.2271 41.0599 32.2319 41.0583 32.2366C41.0478 32.2708 41.037 32.305 41.0259 32.3389C41.0143 32.3752 41.0027 32.4116 40.9906 32.4476C40.9788 32.4836 40.9669 32.5197 40.9545 32.5557C40.9424 32.5918 40.9301 32.6275 40.9177 32.6633C40.9053 32.6994 40.893 32.7351 40.8801 32.7709C40.8788 32.7746 40.8775 32.7786 40.876 32.7823C40.8616 32.8234 40.8469 32.8642 40.8319 32.9053C40.818 32.9432 40.8041 32.9811 40.7899 33.019C40.7809 33.0431 40.7719 33.067 40.7629 33.0908C40.7271 33.1854 40.6903 33.2795 40.6529 33.3733C40.6359 33.4157 40.6187 33.4581 40.6011 33.5003C40.5854 33.5392 40.5692 33.5782 40.5527 33.6171C40.5452 33.6349 40.5378 33.6527 40.53 33.6704C40.5128 33.7115 40.4953 33.7526 40.4772 33.7936C40.4577 33.8387 40.4381 33.8838 40.418 33.9285C40.4105 33.9458 40.4028 33.9627 40.3951 33.9797C40.3817 34.0099 40.368 34.0401 40.3544 34.0703C40.3415 34.0984 40.3286 34.1262 40.3157 34.1541C40.2892 34.2121 40.2619 34.2699 40.2343 34.3277C40.232 34.333 40.2294 34.338 40.2271 34.3433C40.2155 34.3674 40.2039 34.3915 40.1924 34.4156C40.139 34.5259 40.0847 34.6356 40.029 34.7448C40.0123 34.7785 39.995 34.8121 39.9775 34.8455C39.942 34.9147 39.9057 34.9836 39.8691 35.0525C39.7944 35.1839 38.6036 37.266 37.3077 38.5942C37.303 38.5993 37.2984 38.6041 37.2935 38.6086C37.1686 38.7363 37.0426 38.8569 36.9169 38.9674C36.9151 38.969 36.9128 38.9708 36.9107 38.973C36.5553 39.2852 36.1995 39.521 35.8642 39.6265C35.9074 39.5459 35.945 39.4542 36.0007 39.3758C36.2124 39.0763 36.4484 38.793 36.6426 38.4819C37.591 36.9612 38.1876 35.3008 38.4895 33.5212C38.7478 31.9968 38.8112 30.465 38.6582 28.9289C38.4727 27.0677 38.032 25.2817 37.183 23.6269C37.1789 23.6187 37.1745 23.6102 37.1704 23.602C37.1003 23.4665 37.0279 23.3322 36.9525 23.1986C36.8587 23.0324 36.7526 22.8734 36.6508 22.7086C36.4875 22.7783 36.5573 22.897 36.5674 22.9818C36.666 23.8044 36.7734 24.626 36.8757 25.4478C36.8868 25.5358 36.8961 25.6235 36.9038 25.7115V25.7121C36.9708 26.4525 36.9378 27.1954 36.9105 27.9356C36.8739 28.9239 36.7737 29.9074 36.5656 30.8766C36.3155 32.0413 35.9033 33.1412 35.3279 34.1747C35.0927 34.5972 34.8266 34.9934 34.5363 35.3692C34.1046 35.9281 33.6196 36.4417 33.1026 36.9294C32.4035 37.589 31.6068 38.1079 30.8302 38.6571C30.6617 38.7761 30.4662 38.854 30.288 38.9597C29.2615 39.5674 28.209 40.1187 27.1097 40.5748C26.1875 40.9577 25.277 41.3711 24.3507 41.7432C23.2966 42.1665 22.2362 42.5736 21.169 42.9608C20.0856 43.354 18.9981 43.7383 17.8998 44.0831C16.4238 44.5464 14.937 44.9747 13.426 45.302C11.8625 45.6407 10.2892 45.9054 8.68211 45.8161C8.28929 45.7941 7.89442 45.7557 7.50778 45.6831C7.21723 45.6282 6.94084 45.5405 6.68635 45.4103C6.68558 45.4098 6.6848 45.4093 6.68403 45.409C5.65576 44.7581 5.37396 43.7025 5.36108 43.6522C5.36082 43.6509 5.36056 43.6503 5.36056 43.6503C5.36056 43.6503 5.26835 45.219 5.86337 45.8532H5.86363C5.98289 46.0223 6.12353 46.1808 6.28168 46.3305C6.35922 46.4039 6.43933 46.4731 6.52149 46.5383C6.91611 46.8507 7.36096 47.0728 7.82667 47.2589C8.42349 47.4969 9.04968 47.5994 9.67973 47.685C11.1766 47.8886 12.6577 47.7423 14.1308 47.4651C15.9037 47.1317 17.6365 46.631 19.3546 46.0782C21.0348 45.5376 22.7238 45.03 24.4264 44.5694C24.6477 44.5095 24.8689 44.4507 25.0907 44.3924C26.2875 44.0781 27.4886 43.7839 28.7072 43.5865C30.4178 43.3095 32.1325 43.0543 33.8681 43.0047C34.6564 42.9822 35.4461 42.9162 36.2323 42.9472C36.8729 42.9724 37.5158 42.9867 38.1543 43.0601H38.1546C38.4526 43.0943 38.7496 43.1415 39.0448 43.2088C39.4791 43.3077 39.9265 43.3458 40.3618 43.4412C40.8639 43.5515 41.3623 43.6835 41.8558 43.829C42.0583 43.8886 42.287 43.9387 42.4197 44.1825C42.2237 44.341 41.996 44.3715 41.7873 44.4144C41.0653 44.5636 40.3415 44.7078 39.6133 44.8167C38.2695 45.0176 36.9522 45.3285 35.6478 45.713C34.4887 46.0546 33.3715 46.502 32.3044 47.0736C31.7423 47.3744 31.2071 47.7285 30.6646 48.0669C30.5373 48.1462 30.4299 48.2591 30.2934 48.3733C30.2934 48.3733 30.4139 48.3855 30.6293 48.4085C31.868 48.5413 36.2405 49.0364 38.7695 49.6706C39.6048 49.8802 40.239 50.1049 40.4927 50.3368H40.493C40.493 50.3368 39.4703 52.2749 31.7436 54.1357C31.128 54.2838 30.4698 54.4317 29.7664 54.578C29.7664 54.578 29.7664 54.578 29.7669 54.5782C29.7672 54.5782 29.7674 54.5785 29.7679 54.5788C29.7808 54.5849 29.8844 54.6342 30.0721 54.7089C30.0724 54.7089 30.0727 54.7089 30.0729 54.7092C31.2395 55.1722 35.6496 56.6022 41.7832 54.6975C42.4869 54.4791 43.213 54.2168 43.9598 53.904C43.9621 53.903 43.9644 53.9022 43.9667 53.9011C52.2859 50.414 52.8382 45.3115 52.8462 45.232C52.8464 45.2312 52.8464 45.2309 52.8464 45.2309C52.8464 45.2309 51.6394 45.845 49.5767 45.1888C49.2186 45.0748 48.8346 44.9227 48.4268 44.7224C48.5955 44.6733 48.7552 44.6595 48.9121 44.6394C49.5074 44.5631 50.0977 44.4661 50.6817 44.319C51.6229 44.0818 52.5051 43.6994 53.3224 43.1712C53.8608 42.8232 54.3229 42.3727 54.734 41.8702C54.7992 41.7904 54.879 41.7223 54.9581 41.6563C54.9792 41.6386 55.0222 41.6486 55.0776 41.6441C55.1559 41.8249 55.1209 42.0215 55.1003 42.206Z" fill="#E96D24"/>
<path d="M36.9102 27.9353C36.8737 28.9236 36.7735 29.9071 36.5653 30.8763C36.3152 32.041 35.9031 33.1409 35.3276 34.1745C35.0925 34.5969 34.8264 34.9931 34.5361 35.3689C34.1044 35.9278 33.6193 36.4415 33.1024 36.9291C32.4033 37.5887 31.6066 38.1076 30.83 38.6568C30.6615 38.7758 30.466 38.8537 30.2878 38.9594C29.2613 39.5671 28.2088 40.1184 27.1094 40.5745C26.1873 40.9574 25.2767 41.3709 24.3504 41.743C23.2964 42.1662 22.2359 42.5733 21.1688 42.9605C20.0854 43.3538 18.9979 43.738 17.8995 44.0828C16.4236 44.5461 14.9368 44.9744 13.4258 45.3017C11.8623 45.6404 10.2889 45.9051 8.68187 45.8158C8.28905 45.7938 7.89418 45.7554 7.50754 45.6828C7.21699 45.6279 6.9406 45.5402 6.68611 45.4101C6.68534 45.4095 6.68456 45.409 6.68379 45.4087C5.65552 44.7578 5.37372 43.7023 5.36084 43.6519C5.38093 43.7216 6.04576 45.766 14.1638 44.1448C22.4219 42.4956 26.2303 39.3625 26.5737 37.69C26.9173 36.0174 26.4822 33.3789 24.6047 31.4238C22.7272 29.4685 20.3687 27.3483 17.7815 27.7723C15.1941 28.1964 10.8798 30.289 10.8798 30.289C12.6229 29.0346 14.3941 27.8237 16.2814 26.8092C17.3148 26.2538 18.3709 25.7452 19.4834 25.3696C19.8445 25.2477 20.1678 25.2538 20.5271 25.4036C21.9181 25.9832 23.224 26.7199 24.4434 27.6136C25.2121 28.177 25.9297 28.8094 26.5657 29.5329C26.7251 29.7141 26.8737 29.9058 27.0278 30.0929C27.0278 30.0929 28.749 34.5097 30.4431 35.2634C32.1375 36.0174 34.5188 32.6781 34.5188 32.6781C34.5188 32.6781 36.2315 30.5516 36.9035 25.7118C36.9705 26.4523 36.9375 27.1951 36.9102 27.9353Z" fill="#FBCA8A"/>
<path d="M41.2208 31.679C41.2054 31.7362 41.1894 31.7935 41.1732 31.8507C41.1637 31.8841 41.1541 31.9178 41.1443 31.9512C41.1384 31.9711 41.1328 31.9909 41.1268 32.0105C41.116 32.0471 41.1052 32.0837 41.0939 32.1203C41.0836 32.1542 41.073 32.1881 41.0624 32.222C41.0611 32.2268 41.0596 32.2316 41.0581 32.2363C41.0475 32.2705 41.0367 32.3047 41.0256 32.3386C41.014 32.3749 41.0024 32.4113 40.9903 32.4473C40.9785 32.4833 40.9664 32.5194 40.9542 32.5554C40.9421 32.5915 40.9298 32.6272 40.9174 32.663C40.905 32.6991 40.8927 32.7348 40.8798 32.7706C40.8785 32.7743 40.8772 32.7783 40.8757 32.782C40.8613 32.8231 40.8466 32.8639 40.8316 32.905C40.8177 32.9429 40.8038 32.9808 40.7897 33.0187C40.7806 33.0428 40.7716 33.0667 40.7626 33.0905C40.7268 33.1851 40.69 33.2792 40.6526 33.373C40.6356 33.4154 40.6184 33.4578 40.6008 33.5C40.5849 33.5389 40.5686 33.5779 40.5524 33.6168C40.5449 33.6346 40.5375 33.6524 40.5297 33.6701C40.5125 33.7112 40.495 33.7523 40.4769 33.7933C40.4574 33.8384 40.4378 33.8835 40.4177 33.9282C40.4102 33.9455 40.4025 33.9624 40.3948 33.9794C40.3814 34.0096 40.3677 34.0398 40.3541 34.07C40.3412 34.0981 40.3283 34.1259 40.3154 34.1538C40.2889 34.2118 40.2616 34.2696 40.234 34.3274C40.2317 34.3327 40.2291 34.3377 40.2268 34.343C40.2152 34.3671 40.2036 34.3912 40.1921 34.4153C40.1387 34.5256 40.0844 34.6353 40.0287 34.7445C40.0117 34.7782 39.9945 34.8118 39.9772 34.8452C39.9417 34.9144 39.9054 34.9833 39.8688 35.0522C39.7941 35.1836 38.6033 37.2657 37.3074 38.594C37.3027 38.599 37.2981 38.6038 37.2932 38.6083C37.2216 38.6798 37.1487 38.7503 37.0753 38.8203C37.023 38.8698 36.9702 38.9189 36.9166 38.9671C36.9148 38.9687 36.9125 38.9705 36.9104 38.9727C36.555 39.2849 36.1992 39.5207 35.8639 39.6262C35.8639 39.6262 40.7008 35.3578 40.1511 28.2904C39.6017 21.2234 32.6191 14.3916 32.6191 14.3916C32.6191 14.3916 28.0851 10.2568 26.4803 8.86035C26.6756 8.9767 26.9311 9.12935 27.2284 9.30824C28.7327 10.2133 31.3113 11.7891 32.6191 12.731C32.8097 12.8683 32.9735 12.9923 33.1028 13.0986C33.5551 13.4487 33.9987 13.8112 34.433 14.1873C35.2995 14.9378 36.1464 15.7125 36.911 16.5735C37.9418 17.7346 38.8992 18.9537 39.6717 20.3212C40.0955 21.0715 40.4831 21.8348 40.7984 22.6399C41.1534 23.5455 41.3803 24.4858 41.5554 25.4417C41.9416 27.5489 41.778 29.6219 41.2208 31.679Z" fill="#FBCA8A"/>
<path d="M37.7085 8.94373C37.4684 9.89702 36.012 11.4007 34.5902 12.1314C35.3943 11.0022 35.6483 9.58614 35.6483 9.58614C35.4247 9.11388 33.7468 8.54752 32.9888 8.31272C33.3666 8.2568 33.7535 8.21996 34.1363 8.20591C35.2761 8.1643 37.1567 8.47146 37.7085 8.94373Z" fill="#FBCA8A"/>
<path d="M34.5901 3.44075C34.4134 3.86081 34.2115 4.24668 33.9894 4.60128C33.0943 6.03213 31.8718 6.95282 30.6553 7.54541C29.4593 8.12793 28.2687 8.39321 27.3994 8.51353C26.8281 8.59277 26.3953 8.60921 26.1916 8.61212H26.1911C29.8611 6.97879 30.9927 4.07362 30.9927 4.07362C26.1486 2.03772 22.1532 4.6087 22.0996 4.64342C22.8801 3.97821 23.7159 3.39994 24.6247 2.92687C24.9384 2.76362 25.2568 2.61733 25.5821 2.49754C26.0339 2.3531 26.4857 2.24736 26.9327 2.17368C26.9332 2.17368 26.9334 2.17342 26.9337 2.17342C27.0396 2.15592 27.1452 2.14029 27.2505 2.12651C27.8873 2.04249 28.5122 2.02129 29.1123 2.04435C29.4165 2.08437 29.7207 2.12518 30.0257 2.15513C30.9685 2.24736 31.8914 2.44294 32.7942 2.72943C33.1989 2.8577 33.5958 3.01115 33.9928 3.1646C34.3544 3.31804 34.5659 3.42803 34.5881 3.43969C34.5893 3.44048 34.5901 3.44075 34.5901 3.44075Z" fill="#FBCA8A"/>
<path d="M55.1 42.2056C55.0266 42.8539 54.964 43.5053 54.8476 44.1456C54.5748 45.6443 54.1513 47.0921 53.4677 48.457C52.723 49.9443 51.8076 51.297 50.6732 52.4964C50.133 53.0676 49.5516 53.5862 48.9517 54.0874C46.9985 55.7188 44.7974 56.8791 42.4413 57.751C41.0676 58.2591 39.6687 58.6773 38.2453 59.0056C37.5601 59.1636 36.8682 59.2966 36.1748 59.4109C34.4124 59.7008 32.6374 59.8678 30.8534 59.9147C29.4647 59.951 28.0776 59.947 26.6895 59.8201C25.5113 59.7125 24.3349 59.5988 23.1637 59.4331C21.8552 59.2479 20.5616 58.9786 19.275 58.6717C17.5352 58.2567 15.8246 57.7399 14.1478 57.1102C13.0355 56.6928 11.9611 56.1818 10.9035 55.6324C10.1369 55.2341 9.38863 54.8035 8.66405 54.332C6.83572 53.142 5.21809 51.7109 3.9482 49.891C3.75089 49.6085 3.56543 49.3202 3.39337 49.0255C3.34597 48.9444 3.29961 48.8627 3.25427 48.7808C2.93667 48.2065 2.66981 47.6084 2.46375 46.9824C5.94396 57.1009 27.9702 57.2191 27.9702 57.2191C24.948 55.523 24.5817 53.5441 24.5817 53.5441C28.8862 53.6856 34.9309 50.9999 34.9309 50.9999C34.4729 50.1518 26.6653 49.7042 26.6653 49.7042C30.1517 44.6367 35.4778 43.4218 37.4161 43.1409L38.1515 43.0601H38.1541L38.1543 43.0598C38.4523 43.094 38.7493 43.1412 39.0445 43.2085C39.4788 43.3073 39.9262 43.3455 40.3616 43.4409C40.8636 43.5512 41.362 43.6831 41.8555 43.8286C42.058 43.8883 42.2867 43.9384 42.4194 44.1822C42.2234 44.3407 41.9957 44.3711 41.787 44.4141C41.065 44.5633 40.3412 44.7075 39.613 44.8164C38.2692 45.0173 36.9519 45.3281 35.6475 45.7127C34.4884 46.0543 33.3712 46.5016 32.3041 47.0733C31.742 47.3741 31.2068 47.7282 30.6643 48.0666C30.5371 48.1458 30.4296 48.2587 30.2931 48.373C30.2931 48.373 30.4137 48.3852 30.629 48.4082C31.8677 48.541 36.2402 49.0361 38.7692 49.6702C39.6045 49.8799 40.2387 50.1046 40.4924 50.3365H40.4927C40.4927 50.3365 39.4701 52.2746 31.7433 54.1353C31.1277 54.2835 30.4696 54.4314 29.7661 54.5777C29.7661 54.5777 29.7661 54.5777 29.7666 54.5779C29.7669 54.5779 29.7671 54.5782 29.7676 54.5785C29.7805 54.5845 29.8841 54.6338 30.0719 54.7086C30.0721 54.7086 30.0724 54.7086 30.0726 54.7088C31.2392 55.1718 35.6493 56.6019 41.7829 54.6972C42.4866 54.4788 43.2128 54.2164 43.9595 53.9037C43.9618 53.9026 43.9641 53.9019 43.9664 53.9008C52.2856 50.4136 52.8379 45.3112 52.8459 45.2317C52.8461 45.2309 52.8461 45.2306 52.8461 45.2306C52.8461 45.2306 51.6391 45.8447 49.5764 45.1885C49.2183 45.0745 48.8343 44.9224 48.4265 44.722C48.5952 44.673 48.7549 44.6592 48.9118 44.6391C49.5071 44.5627 50.0975 44.4658 50.6814 44.3187C51.6226 44.0815 52.5048 43.699 53.3222 43.1709C53.8605 42.8229 54.3226 42.3723 54.7337 41.8699C54.7989 41.7901 54.8787 41.722 54.9578 41.656C54.9789 41.6382 55.022 41.6483 55.0773 41.6438C55.1556 41.8245 55.1206 42.0212 55.1 42.2056Z" fill="#F8CA89"/>
</g>
<defs>
<clipPath id="clip0_212_632">
<rect width="56.8666" height="62" fill="white"/>
</clipPath>
</defs>
</svg>
