<svg width="19" height="19" viewBox="0 0 19 19" fill="none" xmlns="http://www.w3.org/2000/svg">
<path d="M13.0872 12.0035L12.8028 12.3535L13.1216 12.6723L18.0224 17.5732L18.376 17.2197L18.0224 17.5733C18.1201 17.6709 18.1201 17.8291 18.0224 17.9267L18.0224 17.9268C17.9373 18.0119 17.8052 18.023 17.7085 17.9591L17.656 17.9138L12.7681 13.0259L12.4492 12.7071L12.0992 12.9915C10.9382 13.9349 9.45862 14.5 7.8457 14.5C4.11778 14.5 1.0957 11.478 1.0957 7.75C1.0957 4.02208 4.11779 1 7.8457 1C11.5737 1 14.5957 4.02208 14.5957 7.75C14.5957 9.36292 14.0306 10.8424 13.0872 12.0035ZM7.8457 1.5C4.39392 1.5 1.5957 4.29822 1.5957 7.75C1.5957 11.2017 4.39392 14 7.8457 14C11.2974 14 14.0957 11.2017 14.0957 7.75C14.0957 4.29822 11.2974 1.5 7.8457 1.5Z" fill="white" stroke="#F8F8F8"/>
</svg>
