<svg width="625" height="105" viewBox="0 0 625 105" fill="none" xmlns="http://www.w3.org/2000/svg">
<path d="M44.976 11.984L44.2864 12.7081L44.2922 12.7137L44.2982 12.7192L44.976 11.984ZM50.176 38.296L51.1247 38.6122L51.1269 38.6056L50.176 38.296ZM45.288 46.2L44.5704 45.5035L44.5701 45.5039L45.288 46.2ZM36.448 51.608L36.7855 52.5493L36.7855 52.5493L36.448 51.608ZM16.064 53.584V52.584H15.064V53.584H16.064ZM16.064 80V81H17.064V80H16.064ZM0.36 80H-0.64V81H0.36V80ZM0.36 5.744V4.744H-0.64V5.744H0.36ZM16.064 18.64V17.64H15.064V18.64H16.064ZM16.064 40.688H15.064V41.688H16.064V40.688ZM28.96 39.544L28.6256 38.6016L28.6256 38.6016L28.96 39.544ZM33.952 35.904L33.136 35.326L33.136 35.326L33.952 35.904ZM32.704 21.344L32.0365 22.0886L32.0437 22.0951L32.0511 22.1014L32.704 21.344ZM24.072 6.744C33.5276 6.744 40.1876 8.80453 44.2864 12.7081L45.6657 11.2599C41.0284 6.84346 33.7524 4.744 24.072 4.744V6.744ZM44.2982 12.7192C48.4904 16.5839 50.632 21.9456 50.632 28.936H52.632C52.632 21.5051 50.3363 15.5654 45.6538 11.2488L44.2982 12.7192ZM50.632 28.936C50.632 32.0937 50.162 35.1089 49.2251 37.9864L51.1269 38.6056C52.1314 35.5204 52.632 32.2956 52.632 28.936H50.632ZM49.2273 37.9798C48.3074 40.7394 46.7613 43.2462 44.5704 45.5035L46.0056 46.8965C48.3907 44.4391 50.1032 41.6766 51.1247 38.6122L49.2273 37.9798ZM44.5701 45.5039C42.4791 47.6602 39.6731 49.3895 36.1105 50.6667L36.7855 52.5493C40.5722 51.1918 43.6596 49.3158 46.0059 46.8961L44.5701 45.5039ZM36.1105 50.6667C32.577 51.9334 28.158 52.584 22.824 52.584V54.584C28.306 54.584 32.9696 53.9173 36.7855 52.5493L36.1105 50.6667ZM22.824 52.584H16.064V54.584H22.824V52.584ZM15.064 53.584V80H17.064V53.584H15.064ZM16.064 79H0.36V81H16.064V79ZM1.36 80V5.744H-0.64V80H1.36ZM0.36 6.744H24.072V4.744H0.36V6.744ZM23.24 17.64H16.064V19.64H23.24V17.64ZM15.064 18.64V40.688H17.064V18.64H15.064ZM16.064 41.688H21.264V39.688H16.064V41.688ZM21.264 41.688C24.3262 41.688 27.0104 41.2969 29.2944 40.4864L28.6256 38.6016C26.6109 39.3165 24.1645 39.688 21.264 39.688V41.688ZM29.2944 40.4864C31.614 39.6633 33.4563 38.3339 34.768 36.482L33.136 35.326C32.0904 36.8021 30.6047 37.8993 28.6256 38.6016L29.2944 40.4864ZM34.768 36.482C36.0971 34.6057 36.72 32.2374 36.72 29.456H34.72C34.72 31.9439 34.1643 33.8743 33.136 35.326L34.768 36.482ZM36.72 29.456C36.72 25.6071 35.6632 22.5747 33.3569 20.5866L32.0511 22.1014C33.7661 23.5799 34.72 25.9556 34.72 29.456H36.72ZM33.3715 20.5994C31.0955 18.5588 27.6466 17.64 23.24 17.64V19.64C27.4307 19.64 30.2912 20.5239 32.0365 22.0886L33.3715 20.5994ZM103.185 27.064L102.547 27.8344L102.554 27.8403L102.562 27.8462L103.185 27.064ZM109.321 80V81H110.321V80H109.321ZM98.5047 80L97.5736 80.3649L97.8225 81H98.5047V80ZM95.4887 72.304L96.4197 71.9391L96.1708 71.304H95.4887V72.304ZM95.0727 72.304V71.304H94.5895L94.2892 71.6826L95.0727 72.304ZM90.0807 77.296L89.4756 76.4998L89.4677 76.5058L89.46 76.512L90.0807 77.296ZM84.2567 80.104L84.0142 79.1339L83.9959 79.1384L83.9779 79.1437L84.2567 80.104ZM67.2007 79.168L66.7535 80.0624L66.7674 80.0694L66.7816 80.076L67.2007 79.168ZM60.9607 73.24L60.0897 73.7314L60.0953 73.741L60.9607 73.24ZM65.0167 49.736L65.5746 50.566L65.5838 50.5596L65.0167 49.736ZM84.0487 44.952L84.0171 43.9525L84.0159 43.9525L84.0487 44.952ZM93.9287 44.64L93.9603 45.6395L94.9287 45.6089V44.64H93.9287ZM91.5367 35.592L90.864 36.3319L90.8722 36.3394L90.8805 36.3466L91.5367 35.592ZM76.9767 34.76L77.2547 35.7206L77.2663 35.7172L77.2778 35.7136L76.9767 34.76ZM69.0727 37.672L68.173 38.1085L68.5961 38.9807L69.4811 38.5848L69.0727 37.672ZM63.9767 27.168L63.5134 26.2818L62.6534 26.7313L63.077 27.6045L63.9767 27.168ZM74.0647 23.424L73.8306 22.4518L73.8265 22.4528L74.0647 23.424ZM87.8967 53.896L87.9245 54.8956L87.9312 54.8954L87.8967 53.896ZM77.4967 56.6L76.8459 55.8407L76.8459 55.8407L77.4967 56.6ZM76.6647 68.248L76.0647 69.048L76.0778 69.0578L76.0912 69.0672L76.6647 68.248ZM90.4967 66.792L91.1437 67.5545L91.1503 67.5489L91.1568 67.5432L90.4967 66.792ZM93.9287 53.688H94.9287V52.6529L93.8942 52.6886L93.9287 53.688ZM85.7127 23.072C93.2109 23.072 98.7717 24.7099 102.547 27.8344L103.822 26.2936C99.555 22.7621 93.4678 21.072 85.7127 21.072V23.072ZM102.562 27.8462C106.346 30.8611 108.321 35.5552 108.321 42.144H110.321C110.321 35.1435 108.204 29.7842 103.808 26.2818L102.562 27.8462ZM108.321 42.144V80H110.321V42.144H108.321ZM109.321 79H98.5047V81H109.321V79ZM99.4357 79.6351L96.4197 71.9391L94.5576 72.6689L97.5736 80.3649L99.4357 79.6351ZM95.4887 71.304H95.0727V73.304H95.4887V71.304ZM94.2892 71.6826C92.7375 73.6391 91.1318 75.2411 89.4756 76.4998L90.6858 78.0922C92.4962 76.7162 94.2186 74.9902 95.8562 72.9254L94.2892 71.6826ZM89.46 76.512C87.9158 77.7344 86.1058 78.6109 84.0142 79.1339L84.4992 81.0741C86.8449 80.4877 88.9175 79.4923 90.7014 78.08L89.46 76.512ZM83.9779 79.1437C81.9486 79.7328 79.3802 80.04 76.2487 80.04V82.04C79.4959 82.04 82.2662 81.7232 84.5355 81.0643L83.9779 79.1437ZM76.2487 80.04C73.0483 80.04 70.1777 79.4406 67.6197 78.26L66.7816 80.076C69.6317 81.3914 72.7931 82.04 76.2487 82.04V80.04ZM67.6479 78.2736C65.1942 77.0467 63.257 75.2104 61.8261 72.739L60.0953 73.741C61.7151 76.5389 63.9378 78.6546 66.7535 80.0624L67.6479 78.2736ZM61.8317 72.7487C60.4136 70.2348 59.6727 67.0195 59.6727 63.048H57.6727C57.6727 67.2578 58.4571 70.8372 60.0897 73.7313L61.8317 72.7487ZM59.6727 63.048C59.6727 57.2785 61.6754 53.1867 65.5745 50.566L64.4589 48.906C59.8994 51.9706 57.6727 56.7535 57.6727 63.048H59.6727ZM65.5838 50.5596C69.5836 47.8057 75.7025 46.2262 84.0815 45.9515L84.0159 43.9525C75.4775 44.2325 68.9084 45.8423 64.4496 48.9124L65.5838 50.5596ZM84.0803 45.9515L93.9603 45.6395L93.8971 43.6405L84.0171 43.9525L84.0803 45.9515ZM94.9287 44.64V42.144H92.9287V44.64H94.9287ZM94.9287 42.144C94.9287 38.9963 94.0842 36.4821 92.1929 34.8374L90.8805 36.3466C92.1785 37.4753 92.9287 39.329 92.9287 42.144H94.9287ZM92.2094 34.8521C90.4443 33.2474 88.0236 32.512 85.0887 32.512V34.512C87.7005 34.512 89.5784 35.1632 90.864 36.3319L92.2094 34.8521ZM85.0887 32.512C82.2136 32.512 79.408 32.9435 76.6756 33.8064L77.2778 35.7136C79.8147 34.9125 82.4171 34.512 85.0887 34.512V32.512ZM76.6986 33.7994C74.0172 34.5756 71.3391 35.5626 68.6643 36.7592L69.4811 38.5848C72.0756 37.4241 74.6668 36.4697 77.2547 35.7206L76.6986 33.7994ZM69.9724 37.2355L64.8764 26.7315L63.077 27.6045L68.173 38.1085L69.9724 37.2355ZM64.4399 28.0542C67.4126 26.5003 70.6988 25.2792 74.3029 24.3952L73.8265 22.4528C70.0813 23.3714 66.6421 24.6464 63.5134 26.2818L64.4399 28.0542ZM74.2987 24.3962C77.9628 23.5141 81.7667 23.072 85.7127 23.072V21.072C81.616 21.072 77.6546 21.5312 73.8306 22.4518L74.2987 24.3962ZM87.8689 52.8964C82.8343 53.0362 79.0636 53.9399 76.8459 55.8407L78.1475 57.3593C79.8124 55.9321 82.9751 55.0331 87.9245 54.8956L87.8689 52.8964ZM76.8459 55.8407C74.6688 57.7068 73.5847 60.1752 73.5847 63.152H75.5847C75.5847 60.7208 76.4419 58.8212 78.1475 57.3593L76.8459 55.8407ZM73.5847 63.152C73.5847 65.7021 74.3424 67.7563 76.0647 69.048L77.2647 67.448C76.2136 66.6597 75.5847 65.3166 75.5847 63.152H73.5847ZM76.0912 69.0672C77.6912 70.1872 79.712 70.704 82.0727 70.704V68.704C79.996 68.704 78.4115 68.2501 77.2381 67.4288L76.0912 69.0672ZM82.0727 70.704C85.61 70.704 88.6549 69.6662 91.1437 67.5545L89.8497 66.0295C87.7624 67.8005 85.1914 68.704 82.0727 68.704V70.704ZM91.1568 67.5432C93.7009 65.3074 94.9287 62.203 94.9287 58.368H92.9287C92.9287 61.7437 91.8685 64.2552 89.8366 66.0408L91.1568 67.5432ZM94.9287 58.368V53.688H92.9287V58.368H94.9287ZM93.8942 52.6886L87.8622 52.8966L87.9312 54.8954L93.9632 54.6874L93.8942 52.6886ZM155.318 23.84L155.019 24.7941L155.03 24.7976L155.041 24.8008L155.318 23.84ZM163.95 28.728L163.232 29.4238L163.238 29.4295L163.243 29.4351L163.95 28.728ZM164.158 45.368L163.463 44.649L163.457 44.6549L163.451 44.6609L164.158 45.368ZM155.942 49.736L155.691 48.7682L154.942 48.9628V49.736H155.942ZM155.942 50.256H154.942V51.0532L155.719 51.2309L155.942 50.256ZM162.494 52.648L162.022 53.5295L162.035 53.5361L162.047 53.5424L162.494 52.648ZM167.07 56.704L166.228 57.2431L166.241 57.2628L166.254 57.282L167.07 56.704ZM165.822 72.2L165.02 71.6033L165.017 71.6068L165.822 72.2ZM156.67 78.648L157.034 79.5797L157.042 79.5765L156.67 78.648ZM132.23 80.624L132.332 79.6292L132.332 79.6292L132.23 80.624ZM124.846 79.48L124.604 80.4501L124.618 80.4537L124.633 80.4569L124.846 79.48ZM119.022 77.504H118.022V78.1457L118.606 78.4131L119.022 77.504ZM119.022 64.712L119.448 63.8072L118.022 63.1362V64.712H119.022ZM127.654 67.728L127.398 68.6946L127.403 68.6958L127.654 67.728ZM146.27 68.456L146.091 67.4721L146.086 67.4731L146.27 68.456ZM151.678 66.376L151.105 65.5568L151.095 65.5637L151.085 65.5709L151.678 66.376ZM151.99 58.784L151.329 59.5338L151.341 59.5451L151.355 59.5559L151.99 58.784ZM131.606 55.768H130.606V56.768H131.606V55.768ZM131.606 45.056V44.056H130.606V45.056H131.606ZM149.182 43.808L148.901 42.8482L148.895 42.8502L149.182 43.808ZM150.742 35.072L150.268 35.9525L150.282 35.9597L150.295 35.9664L150.742 35.072ZM133.062 34.552L133.254 35.5334L133.254 35.5334L133.062 34.552ZM124.014 37.256L123.093 37.6456L123.48 38.56L124.397 38.1797L124.014 37.256ZM119.438 26.44L119.081 25.5061L118.114 25.8763L118.517 26.8296L119.438 26.44ZM130.15 23.424L130.343 24.4052L130.351 24.4036L130.36 24.4018L130.15 23.424ZM143.878 23.176C147.878 23.176 151.589 23.7182 155.019 24.7941L155.618 22.8859C151.975 21.7431 148.06 21.176 143.878 21.176V23.176ZM155.041 24.8008C158.515 25.8028 161.228 27.3548 163.232 29.4238L164.669 28.0322C162.374 25.6639 159.333 23.9572 155.595 22.8792L155.041 24.8008ZM163.243 29.4351C165.254 31.4457 166.278 34.024 166.278 37.256H168.278C168.278 33.5546 167.084 30.4476 164.657 28.0209L163.243 29.4351ZM166.278 37.256C166.278 40.4334 165.314 42.8596 163.463 44.649L164.853 46.087C167.162 43.8551 168.278 40.8732 168.278 37.256H166.278ZM163.451 44.6609C161.595 46.5169 159.029 47.9002 155.691 48.7682L156.194 50.7038C159.789 49.7692 162.7 48.2404 164.865 46.0751L163.451 44.6609ZM154.942 49.736V50.256H156.942V49.736H154.942ZM155.719 51.2309C158.07 51.7682 160.169 52.5366 162.022 53.5295L162.967 51.7665C160.937 50.6794 158.668 49.8531 156.165 49.2811L155.719 51.2309ZM162.047 53.5424C163.836 54.437 165.221 55.6701 166.228 57.2431L167.913 56.1649C166.701 54.2713 165.035 52.8003 162.942 51.7536L162.047 53.5424ZM166.254 57.282C167.274 58.7222 167.838 60.7492 167.838 63.464H169.838C169.838 60.4935 169.224 58.0138 167.886 56.126L166.254 57.282ZM167.838 63.464C167.838 66.3515 166.913 69.0572 165.02 71.6033L166.625 72.7967C168.753 69.9348 169.838 66.8165 169.838 63.464H167.838ZM165.017 71.6068C163.22 74.0458 160.347 76.1001 156.299 77.7195L157.042 79.5765C161.313 77.8679 164.542 75.6235 166.627 72.7932L165.017 71.6068ZM156.307 77.7163C152.373 79.2499 147.239 80.04 140.862 80.04V82.04C147.382 82.04 152.786 81.2354 157.034 79.5797L156.307 77.7163ZM140.862 80.04C137.842 80.04 134.999 79.9027 132.332 79.6292L132.128 81.6188C134.87 81.9 137.782 82.04 140.862 82.04V80.04ZM132.332 79.6292C129.659 79.355 127.235 78.979 125.06 78.5031L124.633 80.4569C126.894 80.9517 129.394 81.3383 132.128 81.6188L132.332 79.6292ZM125.089 78.5099C122.916 77.9666 121.035 77.3265 119.439 76.5949L118.606 78.4131C120.338 79.2068 122.339 79.884 124.604 80.4501L125.089 78.5099ZM120.022 77.504V64.712H118.022V77.504H120.022ZM118.597 65.6168C121.023 66.7589 123.961 67.7827 127.398 68.6946L127.911 66.7614C124.553 65.8706 121.736 64.8838 119.448 63.8072L118.597 65.6168ZM127.403 68.6958C130.958 69.6202 134.718 70.08 138.678 70.08V68.08C134.873 68.08 131.284 67.6384 127.906 66.7602L127.403 68.6958ZM138.678 70.08C141.568 70.08 144.162 69.8687 146.455 69.4389L146.086 67.4731C143.941 67.8753 141.474 68.08 138.678 68.08V70.08ZM146.449 69.4399C148.828 69.0073 150.791 68.272 152.272 67.1811L151.085 65.5709C149.931 66.4214 148.288 67.0727 146.091 67.4721L146.449 69.4399ZM152.252 67.1952C153.886 66.051 154.758 64.472 154.758 62.528H152.758C152.758 63.7734 152.244 64.7597 151.105 65.5568L152.252 67.1952ZM154.758 62.528C154.758 60.7035 154.035 59.1725 152.626 58.0121L151.355 59.5559C152.303 60.3369 152.758 61.3018 152.758 62.528H154.758ZM152.652 58.0342C151.291 56.8333 149.333 56.0199 146.888 55.5165L146.485 57.4755C148.754 57.9428 150.332 58.6547 151.329 59.5338L152.652 58.0342ZM146.888 55.5165C144.439 55.0124 141.349 54.768 137.638 54.768V56.768C141.277 56.768 144.219 57.0089 146.485 57.4755L146.888 55.5165ZM137.638 54.768H131.606V56.768H137.638V54.768ZM132.606 55.768V45.056H130.606V55.768H132.606ZM131.606 46.056H137.326V44.056H131.606V46.056ZM137.326 46.056C142.492 46.056 146.558 45.6394 149.47 44.7658L148.895 42.8502C146.26 43.6406 142.422 44.056 137.326 44.056V46.056ZM149.463 44.7677C150.993 44.32 152.245 43.6473 153.12 42.6875C154.013 41.7071 154.446 40.4983 154.446 39.128H152.446C152.446 40.0457 152.169 40.7609 151.641 41.3405C151.094 41.9407 150.214 42.464 148.901 42.8483L149.463 44.7677ZM154.446 39.128C154.446 38.0517 154.174 37.0653 153.602 36.2073C153.035 35.3556 152.209 34.6876 151.19 34.1776L150.295 35.9664C151.078 36.3578 151.605 36.8164 151.938 37.3167C152.268 37.8107 152.446 38.4016 152.446 39.128H154.446ZM151.216 34.1915C149.184 33.0969 146.024 32.616 141.902 32.616V34.616C145.962 34.616 148.696 35.1057 150.268 35.9525L151.216 34.1915ZM141.902 32.616C139.123 32.616 136.111 32.9366 132.87 33.5706L133.254 35.5334C136.393 34.9194 139.274 34.616 141.902 34.616V32.616ZM132.87 33.5706C129.619 34.2067 126.539 35.1267 123.631 36.3323L124.397 38.1797C127.175 37.028 130.127 36.1453 133.254 35.5334L132.87 33.5706ZM124.935 36.8664L120.359 26.0504L118.517 26.8296L123.093 37.6456L124.935 36.8664ZM119.796 27.3739C122.995 26.1488 126.509 25.1583 130.343 24.4052L129.958 22.4427C126.026 23.215 122.399 24.2351 119.081 25.5061L119.796 27.3739ZM130.36 24.4018C134.155 23.5884 138.658 23.176 143.878 23.176V21.176C138.56 21.176 133.91 21.5955 129.941 22.4462L130.36 24.4018ZM225.982 29.664L225.198 30.2847L225.202 30.29L225.982 29.664ZM229.102 67.832L230.021 68.2259L230.023 68.2207L229.102 67.832ZM221.406 77.712L220.843 76.8854L220.843 76.8854L221.406 77.712ZM202.998 80L202.661 80.9418L202.672 80.9454L202.998 80ZM198.006 77.296L198.631 76.5151L198.631 76.5151L198.006 77.296ZM194.366 73.76L195.134 73.1198L194.834 72.76H194.366V73.76ZM193.534 73.76V72.76H192.301L192.555 73.966L193.534 73.76ZM194.158 77.92L193.162 78.0148L193.163 78.0195L194.158 77.92ZM194.366 104.96V105.96H195.366V104.96H194.366ZM178.87 104.96H177.87V105.96H178.87V104.96ZM178.87 23.216V22.216H177.87V23.216H178.87ZM191.454 23.216L192.413 22.9324L192.201 22.216H191.454V23.216ZM193.638 30.6L192.679 30.8836L192.891 31.6H193.638V30.6ZM194.366 30.6V31.6H194.894L195.192 31.1633L194.366 30.6ZM198.11 26.44L198.761 27.1993L198.771 27.1905L198.781 27.1815L198.11 26.44ZM203.31 23.32L202.966 22.3811L202.955 22.385L203.31 23.32ZM199.046 36.216L198.475 35.3951L198.475 35.3951L199.046 36.216ZM195.51 41.312L194.561 40.9958L194.558 41.0047L194.555 41.0137L195.51 41.312ZM194.366 49.736L193.366 49.7156L193.366 49.7258V49.736H194.366ZM195.406 60.76L194.44 61.0209L194.442 61.0276L195.406 60.76ZM198.942 66.48L199.563 65.696L199.563 65.696L198.942 66.48ZM211.526 66.48L210.872 65.7232L210.872 65.7232L211.526 66.48ZM214.958 60.656L213.999 60.371L213.999 60.371L214.958 60.656ZM213.502 38.816L212.639 39.3212L212.646 39.3337L212.654 39.346L213.502 38.816ZM210.486 23.176C216.56 23.176 221.436 25.5328 225.198 30.2847L226.766 29.0433C222.624 23.8112 217.169 21.176 210.486 21.176V23.176ZM225.202 30.29C228.954 34.963 230.91 41.9802 230.91 51.504H232.91C232.91 41.7531 230.914 34.2104 226.762 29.038L225.202 30.29ZM230.91 51.504C230.91 57.8612 229.986 63.163 228.18 67.4433L230.023 68.2207C231.961 63.6263 232.91 58.0428 232.91 51.504H230.91ZM228.183 67.4381C226.37 71.6672 223.914 74.7943 220.843 76.8854L221.969 78.5386C225.415 76.1924 228.089 72.7328 230.021 68.2259L228.183 67.4381ZM220.843 76.8854C217.765 78.9809 214.187 80.04 210.07 80.04V82.04C214.55 82.04 218.529 80.8805 221.969 78.5386L220.843 76.8854ZM210.07 80.04C207.448 80.04 205.206 79.7035 203.324 79.0546L202.672 80.9454C204.811 81.6832 207.284 82.04 210.07 82.04V80.04ZM203.334 79.0583C201.481 78.3963 199.918 77.5451 198.631 76.5151L197.381 78.0769C198.867 79.2656 200.632 80.217 202.661 80.9417L203.334 79.0583ZM198.631 76.5151C197.291 75.4439 196.127 74.3117 195.134 73.1198L193.598 74.4002C194.684 75.7043 195.947 76.9294 197.381 78.0769L198.631 76.5151ZM194.366 72.76H193.534V74.76H194.366V72.76ZM192.555 73.966C192.824 75.2436 193.027 76.593 193.162 78.0148L195.153 77.8252C195.011 76.335 194.798 74.911 194.512 73.554L192.555 73.966ZM193.163 78.0195C193.298 79.3733 193.366 80.7267 193.366 82.08H195.366C195.366 80.6599 195.295 79.2401 195.153 77.8205L193.163 78.0195ZM193.366 82.08V104.96H195.366V82.08H193.366ZM194.366 103.96H178.87V105.96H194.366V103.96ZM179.87 104.96V23.216H177.87V104.96H179.87ZM178.87 24.216H191.454V22.216H178.87V24.216ZM190.495 23.4996L192.679 30.8836L194.597 30.3164L192.413 22.9324L190.495 23.4996ZM193.638 31.6H194.366V29.6H193.638V31.6ZM195.192 31.1633C196.181 29.7135 197.369 28.3922 198.761 27.1993L197.459 25.6807C195.939 26.9838 194.631 28.4358 193.54 30.0367L195.192 31.1633ZM198.781 27.1815C200.136 25.9555 201.759 24.9777 203.664 24.255L202.955 22.385C200.839 23.1877 198.996 24.2899 197.439 25.6985L198.781 27.1815ZM203.654 24.2589C205.602 23.5444 207.874 23.176 210.486 23.176V21.176C207.689 21.176 205.177 21.5702 202.966 22.3811L203.654 24.2589ZM205.494 33.552C202.663 33.552 200.291 34.1316 198.475 35.3951L199.617 37.0369C200.99 36.0818 202.916 35.552 205.494 35.552V33.552ZM198.475 35.3951C196.664 36.6547 195.375 38.5535 194.561 40.9958L196.458 41.6282C197.17 39.4945 198.238 37.996 199.617 37.0369L198.475 35.3951ZM194.555 41.0137C193.824 43.3535 193.436 46.2632 193.366 49.7156L195.366 49.7564C195.434 46.4141 195.809 43.7079 196.464 41.6103L194.555 41.0137ZM193.366 49.736V51.4H195.366V49.736H193.366ZM193.366 51.4C193.366 55.1318 193.717 58.345 194.44 61.0209L196.371 60.4991C195.708 58.0443 195.366 55.0175 195.366 51.4H193.366ZM194.442 61.0276C195.18 63.6818 196.457 65.7885 198.321 67.264L199.563 65.696C198.098 64.5369 197.019 62.8302 196.369 60.4924L194.442 61.0276ZM198.321 67.264C200.214 68.7622 202.71 69.456 205.702 69.456V67.456C203.008 67.456 200.998 66.8325 199.563 65.696L198.321 67.264ZM205.702 69.456C208.256 69.456 210.442 68.737 212.179 67.2368L210.872 65.7232C209.559 66.8577 207.862 67.456 205.702 67.456V69.456ZM212.179 67.2368C213.89 65.7598 215.117 63.6308 215.916 60.941L213.999 60.371C213.274 62.8119 212.213 64.5655 210.872 65.7232L212.179 67.2368ZM215.916 60.941C216.715 58.2559 217.102 55.0339 217.102 51.296H215.102C215.102 54.9074 214.726 57.9254 213.999 60.371L215.916 60.941ZM217.102 51.296C217.102 45.6775 216.23 41.2939 214.35 38.286L212.654 39.346C214.241 41.8847 215.102 45.8211 215.102 51.296H217.102ZM214.365 38.3108C212.498 35.1213 209.474 33.552 205.494 33.552V35.552C208.863 35.552 211.178 36.8254 212.639 39.3212L214.365 38.3108ZM283.45 27.064L282.813 27.8344L282.82 27.8403L282.827 27.8462L283.45 27.064ZM289.586 80V81H290.586V80H289.586ZM278.77 80L277.839 80.3649L278.088 81H278.77V80ZM275.754 72.304L276.685 71.9391L276.436 71.304H275.754V72.304ZM275.338 72.304V71.304H274.855L274.555 71.6826L275.338 72.304ZM270.346 77.296L269.741 76.4998L269.733 76.5058L269.726 76.512L270.346 77.296ZM264.522 80.104L264.28 79.1339L264.262 79.1384L264.244 79.1437L264.522 80.104ZM247.466 79.168L247.019 80.0624L247.033 80.0694L247.047 80.076L247.466 79.168ZM241.226 73.24L240.355 73.7314L240.361 73.741L241.226 73.24ZM245.282 49.736L245.84 50.566L245.849 50.5596L245.282 49.736ZM264.314 44.952L264.283 43.9525L264.282 43.9525L264.314 44.952ZM274.194 44.64L274.226 45.6395L275.194 45.6089V44.64H274.194ZM271.802 35.592L271.13 36.3319L271.138 36.3394L271.146 36.3466L271.802 35.592ZM257.242 34.76L257.52 35.7206L257.532 35.7172L257.543 35.7136L257.242 34.76ZM249.338 37.672L248.439 38.1085L248.862 38.9807L249.747 38.5848L249.338 37.672ZM244.242 27.168L243.779 26.2818L242.919 26.7313L243.343 27.6045L244.242 27.168ZM254.33 23.424L254.096 22.4518L254.092 22.4528L254.33 23.424ZM268.162 53.896L268.19 54.8956L268.197 54.8954L268.162 53.896ZM257.762 56.6L257.112 55.8407L257.112 55.8407L257.762 56.6ZM256.93 68.248L256.33 69.048L256.343 69.0578L256.357 69.0672L256.93 68.248ZM270.762 66.792L271.409 67.5545L271.416 67.5489L271.422 67.5432L270.762 66.792ZM274.194 53.688H275.194V52.6529L274.16 52.6886L274.194 53.688ZM265.978 23.072C273.477 23.072 279.037 24.7099 282.813 27.8344L284.088 26.2936C279.821 22.7621 273.733 21.072 265.978 21.072V23.072ZM282.827 27.8462C286.612 30.8611 288.586 35.5552 288.586 42.144H290.586C290.586 35.1435 288.47 29.7842 284.073 26.2818L282.827 27.8462ZM288.586 42.144V80H290.586V42.144H288.586ZM289.586 79H278.77V81H289.586V79ZM279.701 79.6351L276.685 71.9391L274.823 72.6689L277.839 80.3649L279.701 79.6351ZM275.754 71.304H275.338V73.304H275.754V71.304ZM274.555 71.6826C273.003 73.6391 271.397 75.2411 269.741 76.4998L270.951 78.0922C272.762 76.7162 274.484 74.9902 276.122 72.9254L274.555 71.6826ZM269.726 76.512C268.181 77.7344 266.371 78.6109 264.28 79.1339L264.765 81.0741C267.111 80.4877 269.183 79.4923 270.967 78.08L269.726 76.512ZM264.244 79.1437C262.214 79.7328 259.646 80.04 256.514 80.04V82.04C259.761 82.04 262.532 81.7232 264.801 81.0643L264.244 79.1437ZM256.514 80.04C253.314 80.04 250.443 79.4406 247.885 78.26L247.047 80.076C249.897 81.3914 253.059 82.04 256.514 82.04V80.04ZM247.914 78.2736C245.46 77.0467 243.523 75.2104 242.092 72.739L240.361 73.741C241.981 76.5389 244.203 78.6546 247.019 80.0624L247.914 78.2736ZM242.097 72.7487C240.679 70.2348 239.938 67.0195 239.938 63.048H237.938C237.938 67.2578 238.723 70.8372 240.355 73.7313L242.097 72.7487ZM239.938 63.048C239.938 57.2785 241.941 53.1867 245.84 50.566L244.724 48.906C240.165 51.9706 237.938 56.7535 237.938 63.048H239.938ZM245.849 50.5596C249.849 47.8057 255.968 46.2262 264.347 45.9515L264.282 43.9525C255.743 44.2325 249.174 45.8423 244.715 48.9124L245.849 50.5596ZM264.346 45.9515L274.226 45.6395L274.163 43.6405L264.283 43.9525L264.346 45.9515ZM275.194 44.64V42.144H273.194V44.64H275.194ZM275.194 42.144C275.194 38.9963 274.35 36.4821 272.458 34.8374L271.146 36.3466C272.444 37.4753 273.194 39.329 273.194 42.144H275.194ZM272.475 34.8521C270.71 33.2474 268.289 32.512 265.354 32.512V34.512C267.966 34.512 269.844 35.1632 271.13 36.3319L272.475 34.8521ZM265.354 32.512C262.479 32.512 259.674 32.9435 256.941 33.8064L257.543 35.7136C260.08 34.9125 262.683 34.512 265.354 34.512V32.512ZM256.964 33.7994C254.283 34.5756 251.605 35.5626 248.93 36.7592L249.747 38.5848C252.341 37.4241 254.932 36.4697 257.52 35.7206L256.964 33.7994ZM250.238 37.2355L245.142 26.7315L243.343 27.6045L248.439 38.1085L250.238 37.2355ZM244.706 28.0542C247.678 26.5003 250.964 25.2792 254.569 24.3952L254.092 22.4528C250.347 23.3714 246.908 24.6464 243.779 26.2818L244.706 28.0542ZM254.564 24.3962C258.228 23.5141 262.032 23.072 265.978 23.072V21.072C261.882 21.072 257.92 21.5312 254.096 22.4518L254.564 24.3962ZM268.135 52.8964C263.1 53.0362 259.329 53.9399 257.112 55.8407L258.413 57.3593C260.078 55.9321 263.241 55.0331 268.19 54.8956L268.135 52.8964ZM257.112 55.8407C254.934 57.7068 253.85 60.1752 253.85 63.152H255.85C255.85 60.7208 256.708 58.8212 258.413 57.3593L257.112 55.8407ZM253.85 63.152C253.85 65.7021 254.608 67.7563 256.33 69.048L257.53 67.448C256.479 66.6597 255.85 65.3166 255.85 63.152H253.85ZM256.357 69.0672C257.957 70.1872 259.978 70.704 262.338 70.704V68.704C260.262 68.704 258.677 68.2501 257.504 67.4288L256.357 69.0672ZM262.338 70.704C265.876 70.704 268.921 69.6662 271.409 67.5545L270.115 66.0295C268.028 67.8005 265.457 68.704 262.338 68.704V70.704ZM271.422 67.5432C273.967 65.3074 275.194 62.203 275.194 58.368H273.194C273.194 61.7437 272.134 64.2552 270.102 66.0408L271.422 67.5432ZM275.194 58.368V53.688H273.194V58.368H275.194ZM274.16 52.6886L268.128 52.8966L268.197 54.8954L274.229 54.6874L274.16 52.6886ZM303.136 24.672L304.078 25.0083L304.079 25.0048L303.136 24.672ZM313.016 10.632L313.626 11.4247L313.633 11.4187L313.016 10.632ZM330.696 3.45599L330.529 2.47011L330.527 2.47037L330.696 3.45599ZM341.824 1.896L341.934 2.88988L341.942 2.889L341.95 2.88799L341.824 1.896ZM353.576 0.439995L354.567 0.31033L354.439 -0.671438L353.456 -0.5528L353.576 0.439995ZM355.344 13.96L355.463 14.9529L356.467 14.8325L356.335 13.8303L355.344 13.96ZM349.624 14.688L349.723 15.683L349.74 15.6814L349.756 15.6792L349.624 14.688ZM343.28 15.416L343.379 16.411L343.394 16.4096L343.408 16.4078L343.28 15.416ZM331.944 16.872L331.815 15.8804L331.799 15.8824L331.784 15.8849L331.944 16.872ZM325.184 18.64L325.52 19.5817L325.535 19.5765L325.55 19.5707L325.184 18.64ZM320.296 21.656L321.003 22.3631L320.296 21.656ZM317.176 27.064L316.227 26.7478L316.224 26.7567L316.221 26.7657L317.176 27.064ZM315.824 35.696L314.826 35.6373L314.763 36.696H315.824V35.696ZM316.552 35.696V36.696H317.103L317.397 36.23L316.552 35.696ZM319.984 31.744L319.33 30.9872L319.322 30.9947L319.313 31.0025L319.984 31.744ZM325.6 28.416L325.224 27.4895L325.224 27.4895L325.6 28.416ZM344.944 29.872L345.434 29.0004L345.434 29.0004L344.944 29.872ZM352.64 38.192L351.742 38.6324L351.742 38.6324L352.64 38.192ZM351.808 68.04L352.685 68.5208L352.685 68.5208L351.808 68.04ZM342.032 77.816L342.491 78.7045L342.503 78.6984L342.032 77.816ZM316.24 78.752L315.83 79.6643L315.83 79.6643L316.24 78.752ZM307.504 71.992L308.28 71.3607L308.28 71.3607L307.504 71.992ZM301.888 60.968L300.926 61.2427L300.928 61.2497L300.931 61.2567L301.888 60.968ZM334.232 67L333.728 66.1362L333.72 66.1409L333.712 66.1458L334.232 67ZM338.08 62.216L337.164 61.8152L337.158 61.8273L337.153 61.8396L338.08 62.216ZM337.248 42.56L336.367 43.0341L336.375 43.0477L336.383 43.061L337.248 42.56ZM323.312 40.168L323.798 41.0422L323.808 41.0362L323.312 40.168ZM318.528 43.808L319.235 44.5151L319.244 44.506L319.253 44.4967L318.528 43.808ZM315.824 47.24L314.93 46.7928L314.824 47.0039V47.24H315.824ZM316.448 55.144L315.461 55.3041L315.462 55.3084L316.448 55.144ZM318.528 61.904L317.627 62.3387L317.627 62.3387L318.528 61.904ZM322.376 66.688L321.782 67.4922L321.79 67.4982L321.798 67.504L322.376 66.688ZM301.016 45.992C301.016 37.6792 302.047 30.6935 304.078 25.0083L302.194 24.3357C300.065 30.2985 299.016 37.5262 299.016 45.992H301.016ZM304.079 25.0048C306.101 19.275 309.287 14.7619 313.626 11.4246L312.406 9.83937C307.731 13.4355 304.331 18.2824 302.193 24.3392L304.079 25.0048ZM313.633 11.4187C317.977 8.01063 323.702 5.66946 330.865 4.44162L330.527 2.47037C323.129 3.73853 317.068 6.18135 312.399 9.84526L313.633 11.4187ZM330.863 4.44188C334.519 3.82113 338.209 3.30378 341.934 2.88988L341.714 0.902111C337.951 1.32021 334.222 1.84286 330.529 2.47011L330.863 4.44188ZM341.95 2.88799C345.761 2.40295 349.676 1.91788 353.696 1.43279L353.456 -0.5528C349.433 -0.0672197 345.513 0.418379 341.698 0.903997L341.95 2.88799ZM352.584 0.569661L354.352 14.0897L356.335 13.8303L354.567 0.31033L352.584 0.569661ZM355.225 12.9671C353.486 13.1757 351.575 13.419 349.492 13.6968L349.756 15.6792C351.833 15.4024 353.735 15.1603 355.463 14.9529L355.225 12.9671ZM349.524 13.693C347.435 13.9019 345.31 14.1457 343.152 14.4242L343.408 16.4078C345.548 16.1316 347.653 15.8901 349.723 15.683L349.524 13.693ZM343.18 14.421C341.087 14.6303 339.063 14.8746 337.107 15.154L337.389 17.1339C339.316 16.8587 341.313 16.6177 343.379 16.411L343.18 14.421ZM337.107 15.154C335.168 15.4309 333.404 15.673 331.815 15.8804L332.073 17.8636C333.673 17.655 335.445 17.4117 337.389 17.1339L337.107 15.154ZM331.784 15.8849C329.165 16.3096 326.84 16.9151 324.818 17.7092L325.55 19.5707C327.411 18.8396 329.593 18.2664 332.104 17.8591L331.784 15.8849ZM324.848 17.6983C322.782 18.436 321.022 19.5162 319.589 20.9489L321.003 22.3631C322.205 21.1612 323.703 20.2306 325.52 19.5817L324.848 17.6983ZM319.589 20.9489C318.134 22.4035 317.025 24.3544 316.227 26.7478L318.125 27.3802C318.852 25.1976 319.823 23.5432 321.003 22.3631L319.589 20.9489ZM316.221 26.7657C315.495 29.0914 315.036 32.0576 314.826 35.6373L316.822 35.7547C317.028 32.2624 317.471 29.4739 318.13 27.3623L316.221 26.7657ZM315.824 36.696H316.552V34.696H315.824V36.696ZM317.397 36.23C318.17 35.0063 319.25 33.757 320.655 32.4855L319.313 31.0025C317.806 32.3657 316.598 33.751 315.706 35.162L317.397 36.23ZM320.638 32.5008C322.066 31.2667 323.84 30.2103 325.976 29.3425L325.224 27.4895C322.922 28.4244 320.952 29.5866 319.33 30.9872L320.638 32.5008ZM325.976 29.3425C328.055 28.4979 330.455 28.064 333.192 28.064V26.064C330.244 26.064 327.582 26.5315 325.224 27.4895L325.976 29.3425ZM333.192 28.064C337.558 28.064 341.3 28.9698 344.454 30.7436L345.434 29.0004C341.932 27.0302 337.839 26.064 333.192 26.064V28.064ZM344.454 30.7436C347.592 32.5091 350.022 35.1256 351.742 38.6324L353.538 37.7516C351.653 33.909 348.951 30.9789 345.434 29.0004L344.454 30.7436ZM351.742 38.6324C353.459 42.1318 354.344 46.5461 354.344 51.92H356.344C356.344 46.3392 355.426 41.6016 353.538 37.7516L351.742 38.6324ZM354.344 51.92C354.344 58.2512 353.186 63.4471 350.931 67.5592L352.685 68.5208C355.144 64.0356 356.344 58.4848 356.344 51.92H354.344ZM350.931 67.5592C348.663 71.6945 345.543 74.8103 341.561 76.9336L342.503 78.6984C346.841 76.3844 350.238 72.9828 352.685 68.5208L350.931 67.5592ZM341.573 76.9276C337.577 78.9921 332.921 80.04 327.576 80.04V82.04C333.186 82.04 338.167 80.9386 342.491 78.7044L341.573 76.9276ZM327.576 80.04C323.541 80.04 319.904 79.3008 316.65 77.8397L315.83 79.6643C319.371 81.2539 323.291 82.04 327.576 82.04V80.04ZM316.65 77.8397C313.399 76.3803 310.611 74.2252 308.28 71.3607L306.728 72.6233C309.25 75.7215 312.286 78.073 315.83 79.6643L316.65 77.8397ZM308.28 71.3607C305.949 68.4976 304.132 64.9452 302.845 60.6793L300.931 61.2567C302.279 65.7268 304.205 69.5237 306.728 72.6233L308.28 71.3607ZM302.849 60.6933C301.632 56.4328 301.016 51.5361 301.016 45.992H299.016C299.016 51.6799 299.648 56.7672 300.926 61.2427L302.849 60.6933ZM328.512 69.456C330.879 69.456 332.973 68.9369 334.752 67.8542L333.712 66.1458C332.301 67.0045 330.582 67.456 328.512 67.456V69.456ZM334.736 67.8638C336.633 66.757 338.043 64.965 339.006 62.5924L337.153 61.8396C336.315 63.9044 335.159 65.3017 333.728 66.1362L334.736 67.8638ZM338.996 62.6168C340.044 60.2218 340.536 57.0864 340.536 53.272H338.536C338.536 56.9456 338.057 59.7728 337.164 61.8152L338.996 62.6168ZM340.536 53.272C340.536 48.668 339.759 44.902 338.113 42.059L336.383 43.061C337.787 45.4874 338.536 48.8626 338.536 53.272H340.536ZM338.128 42.0859C336.46 38.9883 333.508 37.504 329.552 37.504V39.504C332.945 39.504 335.123 40.7237 336.367 43.0341L338.128 42.0859ZM329.552 37.504C327.158 37.504 324.907 38.1048 322.816 39.2998L323.808 41.0362C325.6 40.0125 327.509 39.504 329.552 39.504V37.504ZM322.826 39.2938C320.876 40.3773 319.198 41.6508 317.803 43.1192L319.253 44.4967C320.493 43.1919 322.004 42.0387 323.798 41.0422L322.826 39.2938ZM317.821 43.1009C316.474 44.448 315.485 45.6811 314.93 46.7928L316.718 47.6872C317.133 46.8575 317.947 45.8027 319.235 44.5151L317.821 43.1009ZM314.824 47.24C314.824 49.9955 315.036 52.6837 315.461 55.3041L317.435 54.9839C317.028 52.4736 316.824 49.8925 316.824 47.24H314.824ZM315.462 55.3084C315.891 57.8859 316.61 60.232 317.627 62.3387L319.428 61.4692C318.504 59.5547 317.837 57.3941 317.434 54.9796L315.462 55.3084ZM317.627 62.3387C318.66 64.4769 320.041 66.2054 321.782 67.4922L322.97 65.8838C321.522 64.8132 320.338 63.3524 319.428 61.4692L317.627 62.3387ZM321.798 67.504C323.661 68.8237 325.919 69.456 328.512 69.456V67.456C326.252 67.456 324.419 66.9096 322.954 65.872L321.798 67.504ZM415.751 64.088L414.81 63.7505L414.807 63.7585L414.804 63.7664L415.751 64.088ZM410.239 73.448L409.513 72.7608L409.512 72.7614L410.239 73.448ZM401.607 79.168L401.952 80.1067L401.96 80.1036L401.969 80.1004L401.607 79.168ZM379.039 79.168L378.671 80.0978L378.683 80.1024L378.694 80.1067L379.039 79.168ZM370.407 73.448L369.681 74.1353L369.69 74.1451L370.407 73.448ZM364.687 64.088L363.746 64.4255L363.749 64.4333L363.752 64.4411L364.687 64.088ZM366.039 35.592L366.928 36.0507L366.931 36.0449L366.039 35.592ZM375.607 25.608L376.089 26.4842L376.089 26.4842L375.607 25.608ZM404.519 25.608L404.031 26.4808L404.031 26.4808L404.519 25.608ZM414.191 35.592L413.311 36.0669L413.314 36.0728L414.191 35.592ZM379.663 60.968L378.705 61.253L378.709 61.2687L378.715 61.2842L379.663 60.968ZM383.511 66.688L382.906 67.4842L382.916 67.492L382.927 67.4995L383.511 66.688ZM396.927 66.688L397.527 67.488L397.532 67.4842L396.927 66.688ZM400.671 60.968L399.72 60.6595L399.717 60.6676L399.715 60.6758L400.671 60.968ZM400.671 42.144L399.715 42.4362L399.719 42.4483L399.723 42.4602L400.671 42.144ZM381.223 38.92L380.388 38.37L380.385 38.375L381.223 38.92ZM416.727 51.504C416.727 56.1268 416.081 60.204 414.81 63.7505L416.693 64.4255C418.056 60.6227 418.727 56.3105 418.727 51.504H416.727ZM414.804 63.7664C413.598 67.3184 411.831 70.31 409.513 72.7608L410.966 74.1352C413.501 71.4553 415.408 68.2069 416.698 64.4096L414.804 63.7664ZM409.512 72.7614C407.263 75.1427 404.513 76.9687 401.246 78.2356L401.969 80.1004C405.496 78.7327 408.501 76.7453 410.966 74.1346L409.512 72.7614ZM401.262 78.2293C397.994 79.4299 394.266 80.04 390.063 80.04V82.04C394.458 82.04 398.426 81.4021 401.952 80.1067L401.262 78.2293ZM390.063 80.04C386.218 80.04 382.661 79.4332 379.384 78.2293L378.694 80.1067C382.212 81.3988 386.004 82.04 390.063 82.04V80.04ZM379.407 78.2382C376.207 76.9714 373.45 75.1427 371.124 72.7509L369.69 74.1451C372.218 76.7453 375.216 78.7299 378.671 80.0978L379.407 78.2382ZM371.134 72.7608C368.808 70.3021 366.968 67.2994 365.623 63.7349L363.752 64.4411C365.18 68.2259 367.153 71.4632 369.681 74.1352L371.134 72.7608ZM365.629 63.7505C364.357 60.204 363.711 56.1268 363.711 51.504H361.711C361.711 56.3105 362.383 60.6227 363.746 64.4255L365.629 63.7505ZM363.711 51.504C363.711 45.3074 364.801 40.171 366.928 36.0506L365.151 35.1334C362.84 39.6103 361.711 45.082 361.711 51.504H363.711ZM366.931 36.0449C369.062 31.8498 372.111 28.6722 376.089 26.4842L375.125 24.7318C370.783 27.1198 367.454 30.5982 365.148 35.1391L366.931 36.0449ZM376.089 26.4842C380.075 24.292 384.825 23.176 390.375 23.176V21.176C384.555 21.176 379.46 22.348 375.125 24.7318L376.089 26.4842ZM390.375 23.176C395.567 23.176 400.109 24.2872 404.031 26.4808L405.007 24.7352C400.748 22.3528 395.861 21.176 390.375 21.176V23.176ZM404.031 26.4808C407.946 28.6705 411.039 31.8557 413.311 36.0669L415.071 35.1171C412.629 30.5923 409.274 27.1215 405.007 24.7352L404.031 26.4808ZM413.314 36.0728C415.571 40.1878 416.727 45.3158 416.727 51.504H418.727C418.727 45.0736 417.526 39.5936 415.068 35.1112L413.314 36.0728ZM377.519 51.504C377.519 55.3092 377.906 58.5665 378.705 61.253L380.622 60.683C379.895 58.2388 379.519 55.1868 379.519 51.504H377.519ZM378.715 61.2842C379.597 63.9307 380.982 66.0216 382.906 67.4842L384.116 65.8918C382.574 64.7197 381.394 62.9973 380.612 60.6518L378.715 61.2842ZM382.927 67.4995C384.875 68.9021 387.351 69.56 390.271 69.56V67.56C387.645 67.56 385.614 66.9699 384.096 65.8765L382.927 67.4995ZM390.271 69.56C393.189 69.56 395.64 68.9031 397.527 67.488L396.327 65.888C394.886 66.9689 392.9 67.56 390.271 67.56V69.56ZM397.532 67.4842C399.464 66.0163 400.816 63.916 401.628 61.2602L399.715 60.6758C399.001 63.012 397.857 64.7251 396.322 65.8918L397.532 67.4842ZM401.622 61.2765C402.497 58.5812 402.919 55.3152 402.919 51.504H400.919C400.919 55.1807 400.51 58.2241 399.72 60.6595L401.622 61.2765ZM402.919 51.504C402.919 47.6941 402.497 44.4589 401.62 41.8278L399.723 42.4602C400.51 44.8211 400.919 47.8259 400.919 51.504H402.919ZM401.628 41.8518C400.816 39.1942 399.459 37.1185 397.512 35.7165L396.343 37.3395C397.862 38.4335 399.002 40.1018 399.715 42.4362L401.628 41.8518ZM397.512 35.7165C395.564 34.3139 393.088 33.656 390.167 33.656V35.656C392.793 35.656 394.824 36.2461 396.343 37.3395L397.512 35.7165ZM390.167 33.656C385.818 33.656 382.484 35.1869 380.388 38.37L382.058 39.47C383.706 36.9678 386.335 35.656 390.167 35.656V33.656ZM380.385 38.375C378.426 41.3882 377.519 45.8146 377.519 51.504H379.519C379.519 45.9614 380.415 41.9985 382.062 39.465L380.385 38.375ZM474.526 34.864V35.864H475.526V34.864H474.526ZM455.91 34.864V33.864H454.91V34.864H455.91ZM455.91 80V81H456.91V80H455.91ZM440.414 80H439.414V81H440.414V80ZM440.414 34.864H441.414V33.864H440.414V34.864ZM421.798 34.864H420.798V35.864H421.798V34.864ZM421.798 23.216V22.216H420.798V23.216H421.798ZM474.526 23.216H475.526V22.216H474.526V23.216ZM474.526 33.864H455.91V35.864H474.526V33.864ZM454.91 34.864V80H456.91V34.864H454.91ZM455.91 79H440.414V81H455.91V79ZM441.414 80V34.864H439.414V80H441.414ZM440.414 33.864H421.798V35.864H440.414V33.864ZM422.798 34.864V23.216H420.798V34.864H422.798ZM421.798 24.216H474.526V22.216H421.798V24.216ZM473.526 23.216V34.864H475.526V23.216H473.526ZM520.235 23.216V22.216H519.75L519.449 22.5967L520.235 23.216ZM537.291 23.216L538.062 23.8521L539.411 22.216H537.291V23.216ZM514.827 50.464L514.055 49.8279L513.53 50.4652L514.056 51.1015L514.827 50.464ZM539.267 80V81H541.392L540.037 79.3625L539.267 80ZM521.691 80L520.912 80.6271L521.212 81H521.691V80ZM498.499 51.192L499.278 50.5649L497.499 48.3552V51.192H498.499ZM498.499 80V81H499.499V80H498.499ZM483.003 80H482.003V81H483.003V80ZM483.003 23.216V22.216H482.003V23.216H483.003ZM498.499 23.216H499.499V22.216H498.499V23.216ZM498.499 50.776H497.499V53.6588L499.284 51.3953L498.499 50.776ZM520.235 24.216H537.291V22.216H520.235V24.216ZM536.519 22.5799L514.055 49.8279L515.598 51.1001L538.062 23.8521L536.519 22.5799ZM514.056 51.1015L538.496 80.6375L540.037 79.3625L515.597 49.8265L514.056 51.1015ZM539.267 79H521.691V81H539.267V79ZM522.47 79.3729L499.278 50.5649L497.72 51.8191L520.912 80.6271L522.47 79.3729ZM497.499 51.192V80H499.499V51.192H497.499ZM498.499 79H483.003V81H498.499V79ZM484.003 80V23.216H482.003V80H484.003ZM483.003 24.216H498.499V22.216H483.003V24.216ZM497.499 23.216V50.776H499.499V23.216H497.499ZM499.284 51.3953L521.02 23.8353L519.449 22.5967L497.713 50.1567L499.284 51.3953ZM586.161 27.064L585.524 27.8344L585.531 27.8403L585.538 27.8462L586.161 27.064ZM592.297 80V81H593.297V80H592.297ZM581.481 80L580.55 80.3649L580.799 81H581.481V80ZM578.465 72.304L579.396 71.9391L579.147 71.304H578.465V72.304ZM578.049 72.304V71.304H577.566L577.266 71.6826L578.049 72.304ZM573.057 77.296L572.452 76.4998L572.444 76.5058L572.437 76.512L573.057 77.296ZM567.233 80.104L566.991 79.1339L566.972 79.1384L566.954 79.1437L567.233 80.104ZM550.177 79.168L549.73 80.0624L549.744 80.0694L549.758 80.076L550.177 79.168ZM543.937 73.24L543.066 73.7314L543.072 73.741L543.937 73.24ZM547.993 49.736L548.551 50.566L548.56 50.5596L547.993 49.736ZM567.025 44.952L566.994 43.9525L566.992 43.9525L567.025 44.952ZM576.905 44.64L576.937 45.6395L577.905 45.6089V44.64H576.905ZM574.513 35.592L573.841 36.3319L573.849 36.3394L573.857 36.3466L574.513 35.592ZM559.953 34.76L560.231 35.7206L560.243 35.7172L560.254 35.7136L559.953 34.76ZM552.049 37.672L551.15 38.1085L551.573 38.9807L552.458 38.5848L552.049 37.672ZM546.953 27.168L546.49 26.2818L545.63 26.7313L546.054 27.6045L546.953 27.168ZM557.041 23.424L556.807 22.4518L556.803 22.4528L557.041 23.424ZM570.873 53.896L570.901 54.8956L570.908 54.8954L570.873 53.896ZM560.473 56.6L559.822 55.8407L559.822 55.8407L560.473 56.6ZM559.641 68.248L559.041 69.048L559.054 69.0578L559.068 69.0672L559.641 68.248ZM573.473 66.792L574.12 67.5545L574.127 67.5489L574.133 67.5432L573.473 66.792ZM576.905 53.688H577.905V52.6529L576.871 52.6886L576.905 53.688ZM568.689 23.072C576.187 23.072 581.748 24.7099 585.524 27.8344L586.799 26.2936C582.532 22.7621 576.444 21.072 568.689 21.072V23.072ZM585.538 27.8462C589.323 30.8611 591.297 35.5552 591.297 42.144H593.297C593.297 35.1435 591.181 29.7842 586.784 26.2818L585.538 27.8462ZM591.297 42.144V80H593.297V42.144H591.297ZM592.297 79H581.481V81H592.297V79ZM582.412 79.6351L579.396 71.9391L577.534 72.6689L580.55 80.3649L582.412 79.6351ZM578.465 71.304H578.049V73.304H578.465V71.304ZM577.266 71.6826C575.714 73.6391 574.108 75.2411 572.452 76.4998L573.662 78.0922C575.473 76.7162 577.195 74.9902 578.833 72.9254L577.266 71.6826ZM572.437 76.512C570.892 77.7344 569.082 78.6109 566.991 79.1339L567.476 81.0741C569.821 80.4877 571.894 79.4923 573.678 78.08L572.437 76.512ZM566.954 79.1437C564.925 79.7328 562.357 80.04 559.225 80.04V82.04C562.472 82.04 565.243 81.7232 567.512 81.0643L566.954 79.1437ZM559.225 80.04C556.025 80.04 553.154 79.4406 550.596 78.26L549.758 80.076C552.608 81.3914 555.77 82.04 559.225 82.04V80.04ZM550.624 78.2736C548.171 77.0467 546.234 75.2104 544.803 72.739L543.072 73.741C544.692 76.5389 546.914 78.6546 549.73 80.0624L550.624 78.2736ZM544.808 72.7487C543.39 70.2348 542.649 67.0195 542.649 63.048H540.649C540.649 67.2578 541.434 70.8372 543.066 73.7313L544.808 72.7487ZM542.649 63.048C542.649 57.2785 544.652 53.1867 548.551 50.566L547.435 48.906C542.876 51.9706 540.649 56.7535 540.649 63.048H542.649ZM548.56 50.5596C552.56 47.8057 558.679 46.2262 567.058 45.9515L566.992 43.9525C558.454 44.2325 551.885 45.8423 547.426 48.9124L548.56 50.5596ZM567.057 45.9515L576.937 45.6395L576.874 43.6405L566.994 43.9525L567.057 45.9515ZM577.905 44.64V42.144H575.905V44.64H577.905ZM577.905 42.144C577.905 38.9963 577.061 36.4821 575.169 34.8374L573.857 36.3466C575.155 37.4753 575.905 39.329 575.905 42.144H577.905ZM575.186 34.8521C573.421 33.2474 571 32.512 568.065 32.512V34.512C570.677 34.512 572.555 35.1632 573.841 36.3319L575.186 34.8521ZM568.065 32.512C565.19 32.512 562.385 32.9435 559.652 33.8064L560.254 35.7136C562.791 34.9125 565.394 34.512 568.065 34.512V32.512ZM559.675 33.7994C556.994 34.5756 554.316 35.5626 551.641 36.7592L552.458 38.5848C555.052 37.4241 557.643 36.4697 560.231 35.7206L559.675 33.7994ZM552.949 37.2355L547.853 26.7315L546.054 27.6045L551.15 38.1085L552.949 37.2355ZM547.417 28.0542C550.389 26.5003 553.675 25.2792 557.279 24.3952L556.803 22.4528C553.058 23.3714 549.619 24.6464 546.49 26.2818L547.417 28.0542ZM557.275 24.3962C560.939 23.5141 564.743 23.072 568.689 23.072V21.072C564.593 21.072 560.631 21.5312 556.807 22.4518L557.275 24.3962ZM570.845 52.8964C565.811 53.0362 562.04 53.9399 559.822 55.8407L561.124 57.3593C562.789 55.9321 565.952 55.0331 570.901 54.8956L570.845 52.8964ZM559.822 55.8407C557.645 57.7068 556.561 60.1752 556.561 63.152H558.561C558.561 60.7208 559.418 58.8212 561.124 57.3593L559.822 55.8407ZM556.561 63.152C556.561 65.7021 557.319 67.7563 559.041 69.048L560.241 67.448C559.19 66.6597 558.561 65.3166 558.561 63.152H556.561ZM559.068 69.0672C560.668 70.1872 562.689 70.704 565.049 70.704V68.704C562.973 68.704 561.388 68.2501 560.215 67.4288L559.068 69.0672ZM565.049 70.704C568.587 70.704 571.631 69.6662 574.12 67.5545L572.826 66.0295C570.739 67.8005 568.168 68.704 565.049 68.704V70.704ZM574.133 67.5432C576.677 65.3074 577.905 62.203 577.905 58.368H575.905C575.905 61.7437 574.845 64.2552 572.813 66.0408L574.133 67.5432ZM577.905 58.368V53.688H575.905V58.368H577.905ZM576.871 52.6886L570.839 52.8966L570.908 54.8954L576.94 54.6874L576.871 52.6886ZM613.543 81.248L612.836 81.9551L613.129 82.248H613.543V81.248ZM603.247 70.952H602.247V71.3662L602.54 71.6591L603.247 70.952ZM603.247 69.808L602.567 69.0747L602.247 69.3715V69.808H603.247ZM613.231 60.552V59.552H612.839L612.551 59.8187L613.231 60.552ZM614.271 60.552L614.974 59.8413L614.682 59.552H614.271V60.552ZM624.671 70.848H625.671V70.4308L625.374 70.1373L624.671 70.848ZM624.671 71.888L625.351 72.6211L625.671 72.3243V71.888H624.671ZM614.583 81.248V82.248H614.975L615.263 81.9811L614.583 81.248ZM614.25 80.5409L603.954 70.2449L602.54 71.6591L612.836 81.9551L614.25 80.5409ZM604.247 70.952V69.808H602.247V70.952H604.247ZM603.927 70.5413L613.911 61.2853L612.551 59.8187L602.567 69.0747L603.927 70.5413ZM613.231 61.552H614.271V59.552H613.231V61.552ZM613.567 61.2627L623.967 71.5587L625.374 70.1373L614.974 59.8413L613.567 61.2627ZM623.671 70.848V71.888H625.671V70.848H623.671ZM623.991 71.1549L613.903 80.5149L615.263 81.9811L625.351 72.6211L623.991 71.1549ZM614.583 80.248H613.543V82.248H614.583V80.248Z" fill="#F8F8F8"/>
</svg>
